<svg width="16" height="16" fill="none" xmlns="http://www.w3.org/2000/svg"><path d="M8 1.0027C8 0.200546 7.34545 -0.300798 6.83636 0.200546L2.69091 4.01076H0.727273C0.290909 4.01076 0 4.41183 0 5.01345V11.0296C0 11.6312 0.290909 12.0323 0.727273 12.0323H2.69091L6.83636 15.8425C7.34545 16.2435 8 15.8425 8 15.0403V1.0027Z" fill="#212121"></path><path d="M10.5 5C11.1247 5.81509 11.5 6.86032 11.5 8C11.5 9.13968 11.1247 10.1849 10.5 11" stroke="#212121" stroke-width="2" stroke-linecap="round" stroke-linejoin="round"></path><path d="M14 4C14.6247 5.08679 15 6.48042 15 8C15 9.51958 14.6247 10.9132 14 12" stroke="#212121" stroke-width="2" stroke-linecap="round" stroke-linejoin="round"></path></svg>