<svg width="16" height="16" fill="none" xmlns="http://www.w3.org/2000/svg"><g clip-path="url(#clip0_9066_22004)"><path d="M3 3H5C5.55228 3 6 2.55228 6 2V1C6 0.447715 5.55228 0 5 0H1C0.447715 0 0 0.447715 0 1V5C0 5.55228 0.447715 6 1 6H2C2.55228 6 3 5.55228 3 5V3Z" fill="#212121"></path><path d="M13 3L13 5C13 5.55228 13.4477 6 14 6L15 6C15.5523 6 16 5.55228 16 5L16 1C16 0.447715 15.5523 2.08794e-08 15 -7.28523e-09L11 -2.11272e-07C10.4477 -2.39436e-07 10 0.447715 10 1L10 2C10 2.55228 10.4477 3 11 3L13 3Z" fill="#212121"></path><path d="M13 13L11 13C10.4477 13 10 13.4477 10 14L10 15C10 15.5523 10.4477 16 11 16L15 16C15.5523 16 16 15.5523 16 15L16 11C16 10.4477 15.5523 10 15 10L14 10C13.4477 10 13 10.4477 13 11L13 13Z" fill="#212121"></path><path d="M3 13L3 11C3 10.4477 2.55228 10 2 10L1 10C0.447715 10 -2.39436e-07 10.4477 -2.11272e-07 11L-7.28524e-09 15C2.08794e-08 15.5523 0.447715 16 1 16L5 16C5.55228 16 6 15.5523 6 15L6 14C6 13.4477 5.55228 13 5 13L3 13Z" fill="#212121"></path></g><defs><clipPath id="clip0_9066_22004"><rect width="16" height="16" fill="white"></rect></clipPath></defs></svg>